<svg width="45" height="46" viewBox="0 0 45 46" fill="none" xmlns="http://www.w3.org/2000/svg">
<path opacity="0.25" d="M44 23.1221C44 34.9962 34.3741 44.6221 22.5 44.6221C10.6259 44.6221 1 34.9962 1 23.1221C1 11.2479 10.6259 1.62207 22.5 1.62207C34.3741 1.62207 44 11.2479 44 23.1221Z" stroke="white" stroke-width="2"/>
<g clip-path="url(#clip0_5050_1280)">
<path d="M22.0007 15.6221C19.8281 15.6221 19.5554 15.6316 18.702 15.6704C17.8504 15.7094 17.269 15.8442 16.7604 16.0421C16.2342 16.2464 15.7879 16.5197 15.3432 16.9646C14.8982 17.4093 14.6248 17.8556 14.4198 18.3816C14.2215 18.8904 14.0865 19.4719 14.0482 20.3233C14.01 21.1766 14 21.4495 14 23.6222C14 25.7948 14.0097 26.0667 14.0483 26.92C14.0875 27.7717 14.2223 28.353 14.42 28.8617C14.6245 29.3879 14.8978 29.8342 15.3427 30.2789C15.7872 30.7239 16.2335 30.9979 16.7594 31.2022C17.2684 31.4001 17.8499 31.5349 18.7014 31.5739C19.5547 31.6127 19.8272 31.6222 21.9998 31.6222C24.1726 31.6222 24.4444 31.6127 25.2978 31.5739C26.1495 31.5349 26.7315 31.4001 27.2405 31.2022C27.7665 30.9979 28.2121 30.7239 28.6567 30.2789C29.1017 29.8342 29.375 29.3879 29.58 28.8619C29.7767 28.353 29.9117 27.7715 29.9517 26.9202C29.99 26.0669 30 25.7948 30 23.6222C30 21.4495 29.99 21.1768 29.9517 20.3235C29.9117 19.4718 29.7767 18.8904 29.58 18.3818C29.375 17.8556 29.1017 17.4093 28.6567 16.9646C28.2116 16.5196 27.7666 16.2462 27.24 16.0421C26.73 15.8442 26.1483 15.7094 25.2966 15.6704C24.4433 15.6316 24.1716 15.6221 21.9982 15.6221H22.0007ZM21.2831 17.0638C21.4961 17.0634 21.7337 17.0638 22.0007 17.0638C24.1368 17.0638 24.3899 17.0714 25.2335 17.1098C26.0135 17.1454 26.4368 17.2758 26.7188 17.3853C27.0921 17.5303 27.3583 17.7036 27.6381 17.9836C27.9181 18.2636 28.0915 18.5303 28.2368 18.9036C28.3463 19.1853 28.4768 19.6086 28.5123 20.3886C28.5507 21.232 28.559 21.4853 28.559 23.6203C28.559 25.7553 28.5507 26.0087 28.5123 26.852C28.4767 27.632 28.3463 28.0554 28.2368 28.337C28.0918 28.7104 27.9181 28.9762 27.6381 29.2561C27.3581 29.5361 27.0923 29.7094 26.7188 29.8544C26.4371 29.9644 26.0135 30.0944 25.2335 30.1301C24.3901 30.1684 24.1368 30.1767 22.0007 30.1767C19.8646 30.1767 19.6114 30.1684 18.768 30.1301C17.988 30.0941 17.5647 29.9637 17.2825 29.8542C16.9092 29.7092 16.6425 29.5359 16.3625 29.2559C16.0825 28.9759 15.9092 28.7099 15.7639 28.3364C15.6544 28.0547 15.5238 27.6314 15.4883 26.8514C15.45 26.008 15.4423 25.7547 15.4423 23.6183C15.4423 21.482 15.45 21.23 15.4883 20.3866C15.524 19.6066 15.6544 19.1833 15.7639 18.9013C15.9089 18.5279 16.0825 18.2613 16.3625 17.9813C16.6425 17.7013 16.9092 17.5279 17.2825 17.3826C17.5645 17.2726 17.988 17.1426 18.768 17.1068C19.5061 17.0734 19.7921 17.0634 21.2831 17.0618V17.0638ZM26.2711 18.3921C25.7411 18.3921 25.3111 18.8216 25.3111 19.3518C25.3111 19.8818 25.7411 20.3118 26.2711 20.3118C26.8011 20.3118 27.2311 19.8818 27.2311 19.3518C27.2311 18.8218 26.8011 18.3918 26.2711 18.3918V18.3921ZM22.0007 19.5138C19.7319 19.5138 17.8924 21.3533 17.8924 23.6222C17.8924 25.891 19.7319 27.7297 22.0007 27.7297C24.2696 27.7297 26.1085 25.891 26.1085 23.6222C26.1085 21.3533 24.2696 19.5138 22.0007 19.5138ZM22.0007 20.9555C23.4734 20.9555 24.6674 22.1493 24.6674 23.6222C24.6674 25.0948 23.4734 26.2889 22.0007 26.2889C20.5279 26.2889 19.3341 25.0948 19.3341 23.6222C19.3341 22.1493 20.5279 20.9555 22.0007 20.9555Z" fill="white"/>
</g>
<defs>
<clipPath id="clip0_5050_1280">
<rect width="16.0005" height="16" fill="white" transform="translate(14 15.6221)"/>
</clipPath>
</defs>
</svg>
