<svg width="45" height="46" viewBox="0 0 45 46" fill="none" xmlns="http://www.w3.org/2000/svg">
<path opacity="0.25" d="M44 23.1221C44 34.9962 34.3741 44.6221 22.5 44.6221C10.6259 44.6221 1 34.9962 1 23.1221C1 11.2479 10.6259 1.62207 22.5 1.62207C34.3741 1.62207 44 11.2479 44 23.1221Z" stroke="white" stroke-width="2"/>
<g clip-path="url(#clip0_5050_1284)">
<path d="M29.8482 22.3451C28.4433 22.3763 27.1321 21.9392 26.0082 21.1275V26.7158C26.0082 28.8387 24.697 30.7118 22.699 31.4611C20.7322 32.2103 18.4844 31.6484 17.1108 30.0562C15.7059 28.4328 15.4561 26.1538 16.4552 24.2807C17.4542 22.4387 19.5146 21.4085 21.6375 21.6895V24.4992C20.6697 24.187 19.6083 24.5304 19.0151 25.3421C18.4532 26.185 18.4532 27.2777 19.0463 28.0894C19.6395 28.9011 20.701 29.2445 21.6375 28.9323C22.6053 28.6201 23.2609 27.7148 23.2609 26.7158V15.7891H26.0082C26.0082 16.0388 26.0082 16.2573 26.0706 16.5071C26.258 17.5373 26.8511 18.4427 27.7565 19.0046C28.3496 19.4105 29.0989 19.629 29.8482 19.629V22.3451Z" fill="white"/>
</g>
<defs>
<clipPath id="clip0_5050_1284">
<rect width="16" height="16" fill="white" transform="translate(15 15.6221)"/>
</clipPath>
</defs>
</svg>
